<!DOCTYPE svg PUBLIC "-//W3C//DTD SVG 20010904//EN" "http://www.w3.org/TR/2001/REC-SVG-20010904/DTD/svg10.dtd">
<svg version="1.0" xmlns="http://www.w3.org/2000/svg" width="1682px" height="838px" viewBox="0 0 12000 5980" preserveAspectRatio="xMidYMid meet">
<g id="layer101" fill="#444444" stroke="none">
 <path d="M2053 5462 c-192 -148 -286 -304 -324 -542 l-12 -75 51 -76 c59 -86 67 -115 27 -97 -14 6 -25 16 -25 23 0 11 -41 55 -51 55 -2 0 -4 -93 -3 -207 1 -250 6 -272 82 -351 48 -50 53 -57 34 -60 -11 -2 -35 4 -52 13 -41 21 -50 13 -39 -34 15 -67 46 -106 134 -167 72 -51 85 -64 91 -94 8 -47 31 -115 50 -151 13 -25 13 -33 2 -46 -9 -11 -9 -17 -2 -20 12 -4 7 -58 -8 -90 -9 -17 -8 -29 2 -47 8 -15 10 -35 5 -53 -3 -15 -6 -38 -6 -50 2 -23 2 -75 1 -115 0 -13 2 -44 6 -70 l6 -48 -38 0 c-48 0 -180 -24 -254 -45 -30 -9 -69 -20 -85 -24 -17 -4 -39 -13 -50 -19 -11 -6 -42 -20 -70 -32 -110 -48 -247 -142 -352 -244 -46 -44 -53 -47 -53 -28 0 12 -4 22 -10 22 -5 0 -10 11 -10 25 0 14 5 25 10 25 14 0 12 46 -2 70 -10 16 -10 24 0 40 15 24 16 67 1 76 -6 3 -9 24 -7 48 3 29 -1 45 -13 56 -9 8 -26 41 -39 72 l-22 57 21 30 c12 16 21 32 21 35 0 17 53 62 113 98 76 46 86 68 30 68 -37 0 -37 15 1 22 29 5 29 23 0 38 -72 39 -93 146 -41 213 41 54 36 67 -17 47 -24 -9 -25 -8 -19 20 4 23 2 30 -10 30 -9 0 -19 -4 -22 -10 -3 -5 -13 -10 -21 -10 -12 0 -12 4 3 24 10 13 30 31 44 40 95 57 133 140 131 284 -2 81 1 98 23 142 14 27 25 52 25 55 0 3 -17 5 -37 6 l-38 0 43 19 c47 21 53 35 20 46 l-22 7 25 19 c54 42 89 82 110 125 33 68 64 99 124 124 30 12 55 26 55 30 0 15 -71 31 -113 24 -91 -14 -200 -57 -227 -89 -7 -9 -25 -16 -41 -16 -29 0 -64 -30 -149 -125 -27 -31 -35 -36 -38 -22 -6 28 -25 20 -88 -35 -77 -67 -103 -97 -110 -128 -3 -14 -8 -34 -12 -45 -5 -18 -6 -18 -12 5 -8 33 -50 42 -50 11 0 -12 -6 -21 -15 -21 -8 0 -15 -8 -15 -18 0 -13 -7 -18 -22 -18 -22 1 -23 -2 -22 -91 1 -63 6 -98 15 -110 11 -13 11 -15 1 -9 -7 4 -17 19 -22 32 -14 36 -26 29 -41 -23 -10 -33 -14 -106 -14 -238 0 -209 3 -222 73 -355 59 -111 106 -164 167 -186 25 -10 27 -13 13 -19 -31 -13 -19 -35 31 -56 50 -22 82 -61 88 -108 1 -15 5 -40 9 -57 4 -21 1 -34 -10 -43 -20 -17 -21 -45 -1 -61 8 -7 15 -19 15 -27 0 -8 -7 -21 -15 -29 -19 -20 -19 -48 0 -64 19 -16 19 -46 0 -54 -19 -7 -19 -55 0 -62 20 -8 21 -131 1 -153 -20 -23 -100 -177 -131 -252 -111 -274 -119 -633 -19 -884 9 -22 20 -49 24 -60 31 -83 131 -245 200 -325 222 -260 508 -432 805 -485 149 -27 424 -15 535 24 14 5 45 14 70 22 25 7 56 18 70 25 153 73 197 98 273 152 247 175 438 427 520 687 47 147 57 214 57 375 0 160 -9 217 -58 380 -32 108 -139 329 -163 338 -16 6 -10 142 6 158 8 9 15 24 15 35 0 11 -7 22 -15 25 -8 4 -15 16 -15 29 0 13 7 25 15 29 8 3 15 14 15 24 0 11 -7 25 -15 32 -8 7 -15 20 -15 30 0 10 7 23 15 30 19 16 19 44 1 59 -20 17 -18 89 3 129 11 21 36 44 66 60 58 32 65 47 28 60 -28 9 -28 9 14 16 60 11 125 84 193 216 51 100 55 125 55 330 0 141 -4 207 -14 238 -8 23 -17 42 -20 42 -4 0 -15 -12 -25 -27 -10 -17 -15 -20 -11 -8 4 11 9 58 11 103 4 77 2 84 -16 89 -10 3 -22 14 -25 24 -9 27 -24 23 -31 -8 -3 -16 -10 -37 -15 -48 l-9 -20 4 20 c14 66 16 104 6 110 -15 9 -40 -13 -41 -39 -1 -11 -6 -1 -12 24 -9 36 -26 60 -88 123 -83 82 -109 94 -109 52 0 -25 -1 -25 -32 12 -95 111 -133 144 -156 140 -15 -3 -31 3 -46 18 -13 13 -54 37 -92 55 -58 27 -82 32 -151 33 -109 3 -126 -13 -52 -46 72 -32 92 -52 124 -120 25 -53 57 -89 116 -131 22 -16 23 -18 7 -27 -28 -16 -21 -28 25 -49 l42 -20 -39 3 c-22 1 -41 -3 -43 -9 -2 -6 8 -27 22 -48 23 -34 25 -45 25 -152 0 -135 17 -182 83 -238 65 -54 108 -99 102 -104 -3 -3 -11 0 -17 6 -7 7 -21 12 -31 12 -16 0 -19 -5 -13 -30 l6 -30 -30 15 c-42 22 -47 2 -11 -52 53 -80 33 -169 -47 -212 -30 -16 -28 -28 8 -36 46 -10 46 -25 1 -25 -63 0 -51 -28 29 -67 49 -24 106 -79 130 -125 l20 -39 -20 -56 c-11 -32 -20 -58 -20 -59 0 -1 -10 -5 -22 -9 -14 -4 -18 -8 -10 -12 14 -6 16 -69 2 -78 -5 -3 -10 -19 -10 -35 0 -16 5 -32 10 -35 6 -3 10 -15 10 -26 0 -10 -4 -19 -10 -19 -5 0 -10 -15 -10 -34 0 -19 5 -38 10 -41 6 -3 10 -15 10 -26 0 -10 -4 -19 -10 -19 -5 0 -10 -9 -10 -21 0 -17 -12 -10 -67 41 -91 83 -200 159 -303 210 -47 23 -94 47 -105 53 -11 5 -33 14 -50 18 -16 4 -55 15 -85 24 -69 20 -213 45 -262 45 -37 0 -38 1 -38 39 0 22 5 43 10 46 6 3 10 17 10 30 0 13 -4 27 -10 30 -14 8 -13 41 2 65 10 15 10 27 -1 56 -11 30 -11 41 0 61 10 19 10 31 1 57 -16 42 -15 83 1 89 8 3 1 15 -19 33 -32 30 -64 111 -64 165 0 33 17 52 82 94 64 40 92 96 107 212 11 80 11 95 -4 122 -9 18 -21 29 -26 25 -6 -3 -3 9 6 27 21 40 33 226 17 255 -8 14 -4 30 15 69 29 57 49 157 59 293 5 62 4 92 -4 92 -5 0 -24 -17 -42 -37 -28 -33 -27 -31 5 15 l37 53 -12 82 c-14 94 -31 151 -66 220 -36 72 -94 157 -107 157 -7 -1 -40 -22 -74 -48z m-41 -429 c-12 -65 -26 -156 -32 -203 -46 -389 -49 -456 -25 -655 8 -65 13 -121 11 -122 -6 -6 -24 79 -35 162 -20 146 -13 313 24 570 8 55 19 134 25 175 12 81 42 202 49 195 2 -3 -6 -58 -17 -122z m188 -525 c-19 -53 -63 -118 -81 -118 -10 0 -2 40 10 50 3 3 23 31 44 63 20 31 39 57 41 57 3 0 -4 -23 -14 -52z m-1048 -68 c-9 -16 -20 -30 -24 -30 -5 0 -8 -5 -8 -12 0 -6 -10 -25 -23 -42 -13 -17 -42 -69 -65 -116 -88 -178 -124 -442 -99 -720 6 -69 5 -80 -5 -60 -8 17 -12 98 -12 250 -1 227 4 270 46 395 37 108 130 282 186 348 22 25 23 21 4 -13z m1938 -133 c0 -4 11 -24 23 -45 34 -53 82 -182 106 -285 18 -75 21 -119 20 -285 0 -146 -4 -206 -15 -232 -14 -35 -14 -35 -9 25 15 194 16 239 6 330 -28 246 -73 388 -162 517 -11 14 -19 30 -19 35 0 10 49 -49 50 -60z m-2328 -26 c2 -17 1 -28 -4 -25 -8 5 -12 54 -4 54 2 0 6 -13 8 -29z m1436 -68 c-15 -97 -61 -170 -92 -144 -12 10 -11 16 3 44 18 35 93 157 96 157 1 0 -2 -26 -7 -57z m41 -1214 c129 -21 246 -57 341 -104 43 -22 150 -85 170 -101 134 -107 197 -172 271 -279 218 -317 265 -706 129 -1070 -4 -11 -24 -55 -45 -98 -107 -222 -311 -424 -530 -527 -101 -47 -101 -47 -200 -74 -138 -38 -283 -50 -411 -36 -432 49 -773 300 -952 700 -53 118 -92 307 -92 445 0 118 32 305 66 382 8 17 14 34 14 37 0 15 74 164 96 193 13 17 24 36 24 42 0 6 4 11 8 11 4 0 15 12 24 28 9 15 29 41 45 59 15 17 35 40 44 50 25 28 112 100 176 146 96 69 246 140 358 169 133 35 343 47 464 27z"/>
 <path d="M2047 2933 c-16 -16 -6 -38 100 -218 6 -11 21 -38 33 -60 23 -44 42 -77 50 -85 3 -3 11 -16 17 -30 7 -14 24 -43 38 -65 14 -22 28 -47 32 -55 4 -8 26 -46 48 -85 23 -38 57 -97 75 -130 50 -91 99 -165 108 -165 13 0 35 29 73 95 19 33 39 69 46 80 7 11 16 27 20 35 4 8 32 58 63 110 31 52 59 102 63 110 4 8 16 29 26 45 33 52 27 78 -31 131 -144 129 -254 191 -448 252 -93 29 -297 52 -313 35z"/>
 <path d="M1769 2895 c-176 -48 -407 -200 -519 -341 -92 -116 -117 -166 -94 -189 13 -13 78 -15 498 -15 557 0 528 -5 482 83 -15 29 -31 59 -36 67 -18 27 -126 215 -133 230 -4 8 -21 38 -37 65 -17 28 -38 65 -47 83 -19 36 -35 38 -114 17z"/>
 <path d="M2940 2398 c-5 -13 -23 -45 -40 -73 -16 -27 -33 -57 -37 -65 -4 -8 -56 -98 -115 -198 -59 -101 -108 -186 -108 -188 0 -2 -16 -28 -35 -59 -20 -30 -38 -63 -42 -73 -3 -9 -14 -28 -23 -42 -21 -30 -80 -137 -80 -144 0 -2 7 -12 16 -20 13 -14 55 -16 302 -16 158 0 293 4 301 9 49 31 79 388 46 539 -37 169 -114 344 -154 350 -14 2 -24 -4 -31 -20z"/>
 <path d="M1063 2198 c-6 -7 -18 -35 -28 -63 -22 -64 -33 -347 -16 -450 10 -69 50 -205 69 -241 6 -11 17 -35 26 -54 31 -69 59 -87 86 -55 17 20 59 95 67 118 3 9 9 17 13 17 4 0 10 8 13 18 3 9 20 40 36 67 17 28 34 57 38 65 4 8 56 98 115 198 59 101 108 186 108 188 0 2 21 37 46 79 34 57 44 82 40 100 l-6 25 -299 0 c-227 0 -301 -3 -308 -12z"/>
 <path d="M1562 1663 c-20 -31 -57 -95 -136 -236 -11 -21 -25 -46 -31 -55 -72 -121 -115 -202 -115 -214 0 -16 68 -83 140 -138 25 -19 47 -38 50 -41 3 -4 44 -27 91 -53 143 -77 321 -126 457 -126 57 0 74 3 79 16 5 14 -13 59 -50 119 -7 11 -38 66 -69 121 -32 56 -91 157 -131 225 -40 68 -76 131 -80 139 -4 8 -20 36 -35 62 -15 26 -37 65 -49 87 -45 81 -74 121 -87 121 -8 0 -23 -12 -34 -27z"/>
 <path d="M1997 1373 c-16 -16 -3 -51 56 -151 79 -135 105 -183 113 -204 3 -10 10 -18 15 -18 5 0 9 -6 9 -14 0 -8 6 -21 13 -28 6 -7 20 -29 30 -48 54 -105 46 -102 158 -65 228 74 404 200 541 386 74 100 82 117 67 135 -10 12 -88 14 -504 14 -270 0 -495 -3 -498 -7z"/>
 <path d="M10155 4485 c-5 -2 -22 -6 -37 -9 -25 -6 -28 -11 -28 -45 0 -42 13 -54 50 -44 13 4 26 0 31 -8 5 -8 9 -137 9 -287 l0 -273 48 3 47 3 3 260 c3 270 -4 350 -36 378 -17 15 -69 28 -87 22z"/>
 <path d="M4791 4313 c-92 -19 -181 -141 -181 -248 0 -57 31 -125 79 -175 102 -106 255 -106 361 0 119 119 85 330 -64 407 -31 16 -149 26 -195 16z m152 -108 c37 -17 87 -95 87 -136 0 -41 -41 -109 -81 -135 -55 -35 -114 -33 -167 6 -108 78 -88 232 34 278 35 14 81 9 127 -13z"/>
 <path d="M6187 4306 c-59 -22 -118 -77 -143 -135 -22 -51 -18 -162 7 -216 59 -125 226 -180 345 -115 82 46 116 92 132 177 19 108 -21 209 -106 266 -36 24 -56 30 -120 33 -52 3 -90 0 -115 -10z m167 -101 c73 -35 103 -125 66 -200 -60 -124 -218 -127 -280 -5 -27 52 -25 94 5 145 45 78 124 100 209 60z"/>
 <path d="M6928 4313 c-31 -5 -88 -54 -88 -75 0 -8 11 -25 25 -38 22 -20 29 -22 43 -12 9 7 31 19 48 28 28 15 33 15 62 0 25 -13 32 -23 32 -45 0 -24 -8 -33 -58 -59 -108 -58 -144 -112 -128 -196 16 -84 119 -130 199 -90 33 17 87 63 87 74 0 13 -46 60 -58 60 -7 0 -24 -11 -38 -25 -34 -34 -80 -34 -96 0 -14 31 -10 36 80 91 87 52 115 93 109 155 -9 107 -86 152 -219 132z"/>
 <path d="M8197 4312 c-37 -10 -93 -56 -114 -95 -14 -27 -17 -62 -17 -212 l-1 -180 40 0 40 0 6 155 c7 179 15 206 73 233 50 24 99 15 138 -23 l28 -28 0 -159 c0 -110 4 -163 12 -171 7 -7 29 -12 50 -12 l38 0 0 173 c0 158 -2 176 -23 216 -12 24 -39 58 -59 74 -33 26 -47 30 -110 33 -40 1 -85 0 -101 -4z"/>
 <path d="M9019 4311 c-93 -31 -149 -95 -170 -197 -10 -51 -9 -67 5 -118 31 -105 139 -186 248 -186 41 0 113 24 140 48 16 14 17 7 20 -94 l3 -109 45 0 45 0 3 328 2 327 -50 0 c-43 0 -50 -3 -50 -20 0 -19 0 -19 -35 1 -38 23 -161 35 -206 20z m132 -92 c69 -24 109 -80 109 -154 0 -48 -12 -80 -39 -105 -61 -57 -135 -66 -201 -25 -42 26 -80 88 -80 128 0 62 51 131 112 153 43 16 58 16 99 3z"/>
 <path d="M10801 4313 c-54 -11 -123 -69 -154 -128 -17 -31 -21 -58 -21 -122 0 -73 3 -86 29 -125 78 -118 204 -159 321 -104 49 23 51 23 62 5 9 -13 24 -19 52 -19 l40 0 0 245 0 245 -45 0 c-31 0 -47 -5 -53 -17 -9 -16 -12 -16 -37 1 -27 18 -145 30 -194 19z m144 -104 c64 -30 90 -70 90 -139 0 -130 -131 -202 -241 -133 -55 35 -69 62 -69 132 0 69 25 109 87 139 55 27 78 27 133 1z"/>
 <path d="M4110 4110 l0 -200 -25 0 c-23 0 -25 -4 -25 -45 0 -41 2 -45 25 -45 23 0 25 -3 25 -50 0 -61 19 -102 55 -118 32 -15 85 -15 120 -2 23 9 26 14 23 52 l-3 43 -47 -3 -48 -4 0 41 0 41 45 0 c39 0 45 3 51 24 12 48 2 61 -49 64 l-47 3 0 200 0 199 -50 0 -50 0 0 -200z"/>
 <path d="M5530 4111 l0 -201 -40 0 -40 0 0 -45 0 -45 40 0 40 0 0 -86 0 -85 48 3 47 3 3 82 3 82 42 3 c42 3 42 3 45 46 l3 42 -45 0 -46 0 -2 198 -3 197 -47 3 -48 3 0 -200z"/>
 <path d="M7547 4303 c-4 -3 -7 -93 -7 -200 l0 -193 -35 0 c-35 0 -35 0 -35 -45 0 -45 0 -45 35 -45 l34 0 3 -82 3 -83 48 -3 47 -3 0 85 0 85 48 3 47 3 3 43 3 42 -50 0 -51 0 0 200 0 200 -43 0 c-24 0 -47 -3 -50 -7z"/>
 <path d="M9730 4064 l0 -245 43 3 42 3 3 243 2 242 -45 0 -45 0 0 -246z"/>
 <path d="M9732 3764 c-16 -11 -22 -25 -22 -54 0 -89 112 -95 127 -7 9 60 -53 98 -105 61z"/>
 <path d="M10182 3764 c-16 -11 -22 -25 -22 -54 0 -89 112 -97 126 -9 11 64 -50 101 -104 63z"/>
 <path d="M6930 3593 c-24 -9 -48 -38 -64 -78 -12 -28 -16 -73 -16 -170 0 -154 17 -267 72 -470 10 -38 25 -95 33 -125 9 -30 21 -71 29 -90 8 -19 21 -57 29 -85 9 -27 29 -87 45 -131 l28 -82 -60 62 c-170 175 -331 227 -419 136 -40 -43 -76 -150 -77 -235 0 -22 -4 -35 -8 -28 -41 65 -178 205 -223 228 -84 44 -174 23 -211 -48 -29 -57 -36 -182 -14 -267 54 -217 246 -441 422 -495 76 -23 130 -20 159 10 42 41 34 58 -61 115 -111 67 -180 125 -253 214 -67 82 -136 291 -113 342 15 33 31 30 80 -11 37 -32 142 -166 142 -181 0 -3 10 -20 22 -37 13 -18 35 -54 49 -82 97 -185 107 -197 161 -193 67 5 69 21 24 149 -37 105 -39 117 -40 238 -1 105 2 134 18 169 18 41 29 47 71 42 54 -6 149 -87 280 -238 l92 -107 11 -90 c6 -49 14 -124 17 -166 10 -132 29 -169 85 -169 39 0 82 29 111 76 18 30 21 45 16 102 l-5 67 87 -86 c129 -129 216 -179 311 -179 61 0 111 21 144 60 36 44 41 68 40 205 -1 107 -5 130 -33 210 -39 112 -89 195 -157 263 l-54 52 48 0 c63 0 205 -52 233 -86 6 -8 17 -14 23 -14 14 0 186 -176 186 -189 0 -5 6 -16 13 -23 27 -28 55 -105 77 -213 13 -64 35 -162 52 -232 18 -71 70 -113 142 -113 69 0 80 17 73 111 -4 42 -13 92 -21 110 -53 125 -92 247 -84 269 2 7 31 -21 65 -62 77 -91 186 -197 240 -232 33 -22 50 -27 88 -24 45 3 50 6 69 43 19 37 21 62 26 289 l6 248 28 24 c29 26 36 25 101 -2 44 -18 128 -96 186 -172 36 -48 49 -75 54 -110 6 -54 34 -183 50 -227 26 -77 81 -115 164 -115 60 0 60 0 66 33 4 22 -4 65 -29 141 -80 246 -115 452 -86 507 26 48 130 -6 233 -121 112 -124 262 -344 309 -450 34 -80 84 -117 139 -105 49 11 48 38 -9 210 -47 141 -64 237 -65 361 -2 106 0 114 22 138 44 46 65 35 211 -107 30 -30 69 -71 85 -92 17 -21 38 -46 48 -56 9 -11 17 -23 17 -28 0 -5 3 -11 8 -13 4 -1 20 -20 35 -40 36 -49 61 -62 87 -48 35 19 25 65 -31 149 -57 84 -65 93 -161 191 l-68 68 0 66 c0 35 5 68 11 71 32 21 101 -34 177 -142 31 -43 62 -44 62 -3 0 23 -16 46 -72 106 -79 83 -129 114 -183 114 -29 0 -39 -6 -65 -42 -17 -23 -30 -54 -30 -70 0 -33 -3 -33 -55 -8 -53 26 -119 25 -160 0 -53 -33 -78 -104 -85 -238 l-5 -112 -30 37 c-92 113 -210 215 -296 256 -73 35 -175 38 -220 6 -40 -28 -66 -84 -75 -157 l-7 -61 -35 35 c-51 51 -109 96 -166 128 -37 22 -65 29 -125 33 -68 5 -80 3 -110 -18 -74 -51 -97 -154 -83 -369 9 -144 4 -177 -26 -161 -43 23 -158 157 -237 276 -22 33 -42 62 -45 65 -6 6 -36 61 -96 179 -56 107 -80 131 -136 131 -53 0 -61 -24 -52 -160 l6 -105 -33 30 c-18 17 -39 36 -47 43 -28 25 -98 70 -137 86 -22 10 -48 22 -57 26 -38 20 -155 40 -236 40 -113 0 -231 -23 -302 -59 l-56 -29 -18 147 c-9 80 -22 184 -27 231 -14 118 -53 334 -76 420 -59 219 -122 302 -226 299 -18 0 -39 -3 -47 -6z m73 -155 c18 -46 43 -149 57 -238 6 -41 17 -113 25 -160 20 -123 51 -459 42 -450 -13 13 -89 268 -108 360 -5 25 -16 79 -24 120 -8 41 -20 131 -27 200 -15 171 1 250 35 168z m543 -1049 c90 -62 187 -227 229 -391 23 -89 20 -140 -10 -172 -29 -32 -33 -32 -92 -4 -52 25 -195 160 -261 248 -45 61 -66 132 -75 250 -4 64 -4 65 27 81 17 9 55 17 84 18 44 1 61 -4 98 -30z"/>
 <path d="M2710 3460 c0 -19 3 -21 12 -12 9 9 9 15 0 24 -9 9 -12 7 -12 -12z"/>
 <path d="M4855 2592 c-34 -4 -73 -15 -88 -25 -35 -23 -36 -61 -2 -83 24 -15 34 -15 152 1 316 44 702 -43 772 -174 6 -11 11 -41 11 -67 0 -70 -42 -121 -190 -232 -41 -31 -76 -60 -78 -64 -2 -5 -8 -8 -14 -8 -8 0 -76 -46 -88 -61 -3 -3 -23 -19 -45 -35 -394 -286 -378 -617 35 -757 134 -45 285 -67 467 -67 194 0 249 13 291 68 51 68 8 171 -100 240 -145 91 -238 90 -238 -3 0 -19 19 -45 75 -99 41 -40 75 -81 75 -90 0 -25 -42 -36 -133 -36 -144 0 -265 36 -388 117 -85 55 -118 98 -126 162 -11 95 59 188 257 341 25 19 47 37 50 40 3 3 32 25 64 49 87 65 207 190 241 252 26 48 29 64 30 144 0 76 -3 96 -22 126 -42 66 -93 111 -183 157 -66 35 -163 64 -290 88 -83 16 -439 26 -535 16z"/>
 </g>

</svg>